# Blender 4.2.1 LTS
# www.blender.org
mtllib Enemy2.mtl
o Cube
v 1.163634 1.000000 -3.052570
v 1.163634 0.307199 -3.052570
v 2.150999 0.955578 0.336494
v 2.150999 -0.019711 0.336494
v -1.163634 1.000000 -3.052570
v -1.163634 0.307199 -3.052570
v -2.150999 0.955578 0.336494
v -2.150999 -0.019711 0.336494
v -4.952037 0.422863 -1.583341
v 4.952037 0.709762 -1.583341
v -4.952037 0.709762 -1.583341
v 4.952037 0.422863 -1.583341
v -2.610478 1.000000 -1.009399
v 2.610478 -0.064133 -1.009399
v -2.610478 -0.064133 -1.009399
v 2.610478 1.000000 -1.009399
v -3.013076 -0.055333 -0.237762
v 3.013076 0.991199 -0.237762
v -3.013076 0.991199 -0.237762
v 3.013076 -0.055333 -0.237762
v -4.785623 0.168139 4.345238
v -2.749988 -0.222493 5.690577
v -2.749988 1.000000 5.690577
v 2.749988 1.000000 5.690577
v 2.749988 -0.222493 5.690577
v 4.407584 0.683656 4.345238
v -4.407584 0.683656 4.345238
v 4.785623 0.168139 4.345238
v -3.687740 0.782895 1.092676
v -3.152023 0.985783 3.824979
v -3.152023 -0.216867 3.824979
v -4.149251 -0.171244 1.092676
v 3.152023 -0.216867 3.824979
v 3.152023 0.985783 3.824979
v 3.687740 0.782895 1.092676
v 4.149251 -0.171244 1.092676
v -1.749988 0.082925 5.690577
v -1.749988 0.411931 5.690577
v -1.749988 -0.064133 4.776187
v -1.749988 0.481701 4.776187
v 1.749988 0.411931 5.690577
v 1.749988 0.082925 5.690577
v 1.749988 -0.064133 4.776187
v 1.749988 0.481701 4.776187
v 0.000000 0.228189 -5.211161
v 0.000000 0.544296 0.317649
v 0.000000 -0.090736 0.317649
v 0.000000 0.577446 -5.211161
v 0.000000 -0.354197 -2.006111
v 0.000000 1.897076 -0.993059
v 0.000000 1.755817 -2.920951
v 0.000000 -0.064133 -2.920951
v 0.000000 -0.213374 -0.026417
v 0.000000 1.160550 0.188686
v -0.245818 -0.064133 -5.211161
v -1.143804 0.584000 0.648489
v -1.037415 -0.183855 -1.161457
v -0.690566 0.061929 -2.559310
v -0.934844 -0.044864 -0.531498
v -1.143804 0.080503 0.648489
v -0.245818 0.785328 -5.211161
v -1.037415 1.651515 -1.161457
v -0.690566 1.378808 -2.559310
v -0.998325 1.448526 -0.689258
v 1.143804 0.080503 0.648489
v 0.245818 0.785328 -5.211161
v 1.037415 1.651515 -1.161457
v 0.690566 1.378808 -2.559310
v 0.998325 1.448526 -0.689258
v 0.245818 -0.064133 -5.211161
v 1.143804 0.584000 0.648489
v 1.037415 -0.183855 -1.161457
v 0.690566 0.061929 -2.559310
v 0.934844 -0.044864 -0.531498
v 1.328386 0.485330 2.507708
v 1.027993 1.074010 -4.560409
v 2.737058 1.000000 -0.568158
v 1.156703 1.000004 -1.503911
v 1.955992 0.993912 -0.099657
v 1.027993 -0.064133 -4.560409
v 1.328386 0.594674 2.507708
v 2.737058 -0.064133 -0.568158
v 1.156703 -0.064137 -1.503911
v 1.955992 -0.058045 -0.099657
v -1.027993 -0.064133 -4.560409
v -1.328386 0.594674 2.507708
v -2.737058 -0.064133 -0.568158
v -1.156703 -0.064137 -1.503911
v -1.955992 -0.058045 -0.099657
v -1.328386 0.485330 2.507708
v -1.027993 1.074010 -4.560409
v -2.737058 1.000000 -0.568158
v -1.156703 1.000004 -1.503911
v -1.955992 0.993912 -0.099657
v 3.574695 0.352008 -5.325314
v 3.574695 0.186399 -5.325314
v 2.426319 0.463876 -5.266680
v 2.426319 0.088847 -5.266680
v -2.426319 0.088847 -5.266680
v -3.574695 0.186399 -5.325314
v -3.574695 0.352008 -5.325314
v -2.426319 0.463876 -5.266680
v -1.027993 0.729280 -6.211161
v -0.593784 0.729280 -6.211161
v -0.500000 0.076502 -6.211161
v 0.848420 0.076502 -6.211161
v 0.500000 0.076502 -6.211161
v 0.593784 0.729280 -6.211161
v 1.027993 0.729280 -6.211161
v -0.848420 0.076502 -6.211161
v -1.255372 0.667819 -1.967106
v 1.255372 0.150872 -1.967106
v -1.255372 0.150872 -1.967106
v 1.255372 0.667819 -1.967106
v 0.000000 -0.064133 -4.066056
v 0.000000 1.000000 -4.066056
v -0.372909 -0.064133 -3.919369
v -0.372909 1.000000 -3.919369
v 0.372909 1.000000 -3.919369
v 0.372909 -0.064133 -3.919369
v 0.888996 1.000000 -3.600013
v 0.888996 -0.064133 -3.600013
v -0.888996 -0.064133 -3.600013
v -0.888996 1.000000 -3.600013
v 3.074663 0.768009 1.160967
v 3.926669 0.043162 0.533130
v 3.074663 0.283574 1.160967
v 3.151862 0.870195 0.533130
v -3.074663 0.768009 1.160967
v -3.926669 0.043162 0.533130
v -3.151862 0.870195 0.533130
v -3.074663 0.283574 1.160967
vn 0.0936 0.9873 0.1286
vn -0.9351 -0.0000 0.3543
vn -0.9964 -0.0000 -0.0842
vn -0.1703 -0.9721 0.1616
vn -0.0000 -0.0000 1.0000
vn 0.4036 0.9149 0.0086
vn -0.2381 -0.0000 -0.9712
vn -0.0000 -1.0000 -0.0000
vn -0.5701 -0.0000 0.8216
vn -0.0000 1.0000 -0.0000
vn -0.8973 0.4263 -0.1146
vn 0.8019 -0.5886 -0.1024
vn 0.5772 -0.0000 -0.8166
vn 0.2381 -0.0000 -0.9712
vn -0.2182 0.9751 0.0396
vn 0.5701 -0.0000 0.8216
vn 0.0054 -0.9997 0.0221
vn -0.0054 0.9997 0.0221
vn 0.4705 0.3450 0.8121
vn -0.4705 0.3450 0.8121
vn 0.7877 0.5776 -0.2144
vn -0.2107 -0.9757 0.0606
vn 0.2160 -0.9754 0.0436
vn 0.2434 0.9696 -0.0243
vn 0.3912 0.9158 -0.0913
vn -0.8851 0.4281 -0.1828
vn -0.6279 0.5883 -0.5096
vn 0.9996 -0.0000 0.0290
vn 0.3929 -0.9000 -0.1886
vn 0.0332 0.9962 -0.0805
vn -0.0062 0.9871 0.1599
vn -0.3934 -0.9056 -0.1587
vn 0.8842 0.4277 -0.1878
vn -0.9996 -0.0000 0.0290
vn 1.0000 -0.0000 -0.0000
vn 0.2887 -0.9453 0.1520
vn 0.5614 -0.0000 -0.8275
vn -1.0000 -0.0000 -0.0000
vn -0.5614 -0.0000 -0.8275
vn -0.5058 0.8601 0.0656
vn -0.1288 -0.9912 -0.0308
vn 0.2720 0.8757 0.3990
vn -0.3019 -0.9194 0.2520
vn -0.1507 -0.9870 0.0563
vn 0.5818 0.7382 -0.3415
vn 0.1881 0.9542 -0.2328
vn -0.3484 -0.9046 -0.2455
vn -0.0000 -0.0000 -1.0000
vn -0.1240 -0.9888 0.0831
vn -0.2779 -0.0000 0.9606
vn 0.2123 0.8311 0.5140
vn -0.0268 -0.9773 0.2101
vn 0.1878 0.9615 -0.2008
vn -0.1626 -0.9477 -0.2747
vn 0.3552 -0.9337 0.0454
vn -0.0415 -0.9958 0.0821
vn -0.2152 0.8288 0.5165
vn -0.2118 0.8157 -0.5384
vn -0.5035 0.8617 -0.0631
vn 0.2779 -0.0000 0.9606
vn 0.2787 0.1967 0.9400
vn -0.4230 0.9054 0.0368
vn -0.9951 -0.0000 0.0988
vn 0.4473 0.4789 -0.7554
vn 0.7492 0.6554 -0.0957
vn 0.2161 0.9027 0.3721
vn 0.1054 -0.9919 0.0706
vn 0.3153 -0.9046 -0.2868
vn 0.3314 -0.8887 0.3168
vn 0.1028 0.9929 -0.0595
vn 0.1858 0.8168 -0.5462
vn 0.1150 0.9928 -0.0330
vn 0.9351 -0.0000 0.3543
vn 0.0132 0.9966 0.0817
vn -0.0969 -0.9751 0.1994
vn -0.0665 -0.9920 0.1075
vn 0.2721 -0.9340 -0.2317
vn -0.0000 0.9984 -0.0560
vn -0.0620 -0.9913 0.1163
vn -0.1645 -0.9801 -0.1113
vn -0.1339 -0.9095 -0.3936
vn -0.1905 -0.9802 -0.0546
vn -0.6859 -0.0000 0.7277
vn -0.0132 -0.9966 0.0817
vn -0.1795 0.8983 0.4010
vn -0.1881 0.9339 -0.3041
vn -0.9046 0.3160 -0.2861
vn 0.9951 -0.0000 0.0988
vn -0.0693 0.8413 0.5361
vn -0.0510 -0.0000 -0.9987
vn -0.4508 -0.0000 -0.8926
vn 0.0913 -0.9846 0.1491
vn 0.6859 -0.0000 0.7277
vn 0.0510 -0.0000 -0.9987
vn -0.0857 0.9784 -0.1880
vn -0.2131 -0.9530 0.2155
vn 0.4508 -0.0000 -0.8926
vn 0.9336 0.1341 -0.3324
vn -0.9564 -0.2631 -0.1265
vn -0.0000 -0.9903 -0.1393
vn -0.9692 -0.0000 -0.2463
vn 0.0774 -0.9927 -0.0930
vn 0.2415 0.9608 -0.1359
vn -0.8831 -0.4480 -0.1392
vn -0.5671 0.7730 0.2845
vn -0.7552 -0.6351 -0.1621
vn -0.0436 0.9966 0.0705
vn 0.6215 0.7349 -0.2712
vn 0.0669 0.9832 -0.1700
vn 0.9964 -0.0000 -0.0842
vn 0.7200 -0.6861 0.1042
vn 0.1182 0.9912 0.0593
vn -0.5772 -0.0000 -0.8166
vn -0.6659 -0.0000 0.7460
vn 0.5285 0.4951 -0.6896
vn 0.1128 -0.9668 0.2293
vn 0.0558 0.9879 0.1450
vn -0.0513 0.9847 0.1666
vn 0.0970 -0.9663 0.2384
vn 0.6659 -0.0000 0.7460
vn -0.9842 -0.0000 -0.1772
vn -0.0132 0.9966 0.0817
vn 0.0132 -0.9966 0.0817
vn 0.0857 0.9784 -0.1880
vn 0.1905 -0.9802 -0.0546
vn -0.1150 0.9928 -0.0330
vn -0.1858 0.8168 -0.5462
vn 0.1339 -0.9095 -0.3936
vn -0.2434 0.9696 -0.0243
vn 0.1645 -0.9801 -0.1113
vn -0.1028 0.9929 -0.0595
vn 0.6302 -0.0000 0.7764
vn -0.6302 -0.0000 0.7764
vn 0.8851 0.4281 -0.1828
vn -0.2160 -0.9754 0.0436
vn 0.2107 -0.9757 0.0606
vn 0.2182 0.9751 0.0396
vn 0.5058 0.8601 0.0656
vn -0.7877 0.5776 -0.2144
vn -0.8842 0.4277 -0.1878
vn 0.3934 -0.9056 -0.1587
vn 0.0062 0.9871 0.1599
vn -0.0332 0.9962 -0.0805
vn -0.3929 -0.9000 -0.1886
vn 0.6279 0.5883 -0.5096
vn 0.1288 -0.9912 -0.0308
vn -0.3912 0.9158 -0.0913
vn -0.2887 -0.9453 0.1520
vn 0.2152 0.8288 0.5165
vn -0.1054 -0.9919 0.0706
vn 0.2118 0.8157 -0.5384
vn 0.5035 0.8617 -0.0631
vn -0.3153 -0.9046 -0.2868
vn -0.3314 -0.8887 0.3168
vn -0.2787 0.1967 0.9400
vn 0.0620 -0.9913 0.1163
vn -0.2721 -0.9340 -0.2317
vn 0.0665 -0.9920 0.1075
vn 0.0969 -0.9751 0.1994
vn -0.2720 0.8757 0.3990
vn -0.5818 0.7382 -0.3415
vn -0.1881 0.9542 -0.2328
vn -0.2123 0.8311 0.5140
vn 0.0693 0.8413 0.5361
vn 0.9046 0.3160 -0.2861
vn 0.1881 0.9339 -0.3041
vn 0.1795 0.8983 0.4010
vn 0.3019 -0.9194 0.2520
vn 0.1507 -0.9870 0.0563
vn 0.3484 -0.9046 -0.2455
vn 0.1240 -0.9888 0.0831
vn 0.0054 0.9997 0.0221
vn 0.8973 0.4263 -0.1146
vn -0.0936 0.9873 0.1286
vn 0.0415 -0.9958 0.0821
vn -0.3552 -0.9337 0.0454
vn 0.1626 -0.9477 -0.2747
vn -0.1878 0.9615 -0.2008
vn 0.0268 -0.9773 0.2101
vn -0.0054 -0.9997 0.0221
vn -0.8019 -0.5886 -0.1024
vn 0.1703 -0.9721 0.1616
vn -0.2161 0.9027 0.3721
vn -0.7492 0.6554 -0.0957
vn -0.4473 0.4789 -0.7554
vn 0.4230 0.9054 0.0368
vn 0.2131 -0.9530 0.2155
vn -0.4036 0.9149 0.0086
vn -0.0913 -0.9846 0.1491
vn 0.9692 -0.0000 -0.2463
vn -0.0774 -0.9927 -0.0930
vn -0.9336 0.1341 -0.3324
vn 0.9564 -0.2631 -0.1265
vn 0.0436 0.9966 0.0705
vn -0.7200 -0.6861 0.1042
vn -0.1182 0.9912 0.0593
vn -0.2415 0.9608 -0.1359
vn -0.0669 0.9832 -0.1700
vn -0.6215 0.7349 -0.2712
vn 0.7552 -0.6351 -0.1621
vn 0.8831 -0.4480 -0.1392
vn 0.5671 0.7730 0.2845
vn 0.9842 -0.0000 -0.1772
vn -0.0970 -0.9663 0.2384
vn 0.0513 0.9847 0.1666
vn -0.0558 0.9879 0.1450
vn -0.1128 -0.9668 0.2293
vn -0.5285 0.4951 -0.6896
vt 0.336307 0.299036
vt 0.345410 0.319408
vt 0.307008 0.420874
vt 0.282813 0.764715
vt 0.302415 0.865408
vt 0.256962 0.865408
vt 0.448259 0.597152
vt 0.437765 0.649497
vt 0.424336 0.600000
vt 0.644619 0.284205
vt 0.635465 0.263808
vt 0.672866 0.161936
vt 0.256962 0.693915
vt 0.294846 0.734180
vt 0.279762 0.737074
vt 0.190674 0.161187
vt 0.131728 0.057991
vt 0.197006 0.090776
vt 0.662605 0.701190
vt 0.711241 0.599655
vt 0.711241 0.711305
vt 0.614066 0.326669
vt 0.608184 0.306076
vt 0.681839 0.349748
vt 0.138952 0.779351
vt 0.112420 0.869867
vt 0.090096 0.779351
vt 0.366860 0.256566
vt 0.372769 0.277164
vt 0.298993 0.233481
vt 0.303600 0.211959
vt 0.286496 0.135631
vt 0.676761 0.371136
vt 0.694222 0.447575
vt 0.664907 0.766282
vt 0.688533 0.771196
vt 0.013820 0.599879
vt 0.062456 0.701413
vt 0.013820 0.711529
vt 0.392141 0.482248
vt 0.450754 0.506626
vt 0.373373 0.569333
vt 0.196313 0.779562
vt 0.222844 0.870078
vt 0.173989 0.870078
vt 0.595309 0.290647
vt 0.385654 0.292590
vt 0.283922 0.609948
vt 0.256962 0.597152
vt 0.396696 0.693915
vt 0.369735 0.609948
vt 0.396696 0.597152
vt 0.503811 0.664447
vt 0.555568 0.812690
vt 0.530635 0.815063
vt 0.883357 0.101209
vt 0.958752 0.076517
vt 0.929634 0.228679
vt 0.589368 0.101209
vt 0.512397 0.076517
vt 0.608219 0.014147
vt 0.097850 0.482248
vt 0.039237 0.506626
vt 0.072841 0.354761
vt 0.326690 0.526805
vt 0.634965 0.664447
vt 0.583208 0.812690
vt 0.589442 0.660296
vt 0.626614 0.637369
vt 0.586175 0.633392
vt 0.761875 0.596928
vt 0.794931 0.721213
vt 0.738882 0.721213
vt 0.878563 0.225005
vt 0.918774 0.254564
vt 0.388529 0.357953
vt 0.417149 0.354761
vt 0.101461 0.357953
vt 0.097857 0.328613
vt 0.591789 0.225005
vt 0.542633 0.228679
vt 0.512162 0.637369
vt 0.549334 0.660296
vt 0.761875 0.873138
vt 0.794931 0.748853
vt 0.784452 0.873138
vt 0.982898 0.889984
vt 0.964354 0.932664
vt 0.957459 0.889984
vt 0.864710 0.014147
vt 0.817696 0.056653
vt 0.817430 0.013820
vt 0.358812 0.734180
vt 0.340649 0.683160
vt 0.822572 0.889984
vt 0.855183 0.955435
vt 0.829702 0.955435
vt 0.688044 0.983472
vt 0.669501 0.940792
vt 0.684834 0.940792
vt 0.256962 0.958499
vt 0.289573 0.893048
vt 0.313105 0.958499
vt 0.116618 0.569333
vt 0.163301 0.526805
vt 0.163301 0.569511
vt 0.654475 0.056653
vt 0.244995 0.257002
vt 0.198391 0.271375
vt 0.196566 0.249325
vt 0.784431 0.333894
vt 0.736168 0.280953
vt 0.779384 0.304345
vt 0.753055 0.462479
vt 0.735713 0.415882
vt 0.767669 0.398870
vt 0.227587 0.120723
vt 0.244995 0.167102
vt 0.212758 0.184098
vt 0.736370 0.373497
vt 0.013820 0.941015
vt 0.025296 0.967024
vt 0.013820 0.980670
vt 0.735926 0.264764
vt 0.788922 0.249140
vt 0.926848 0.808553
vt 0.905197 0.755157
vt 0.934842 0.755157
vt 0.244995 0.302473
vt 0.191599 0.334085
vt 0.827054 0.284205
vt 0.796764 0.161936
vt 0.256471 0.060485
vt 0.292985 0.013820
vt 0.292985 0.090776
vt 0.789724 0.349748
vt 0.863470 0.306076
vt 0.777138 0.447575
vt 0.291600 0.271375
vt 0.262404 0.120723
vt 0.244995 0.113876
vt 0.277233 0.184098
vt 0.926848 0.701761
vt 0.298391 0.334085
vt 0.244995 0.318653
vt 0.153684 0.299036
vt 0.182983 0.420874
vt 0.924723 0.890047
vt 0.929819 0.976626
vt 0.906355 0.976918
vt 0.584494 0.893878
vt 0.608191 0.907616
vt 0.584494 0.939002
vt 0.203494 0.135631
vt 0.190997 0.233481
vt 0.117222 0.277164
vt 0.687671 0.333894
vt 0.718274 0.462479
vt 0.735658 0.469325
vt 0.703260 0.398870
vt 0.036771 0.941015
vt 0.036771 0.980670
vt 0.692192 0.304345
vt 0.104336 0.292590
vt 0.013820 0.229861
vt 0.186391 0.211959
vt 0.123131 0.256566
vt 0.375509 0.764715
vt 0.355907 0.865408
vt 0.330056 0.764715
vt 0.144581 0.319408
vt 0.233520 0.060485
vt 0.197006 0.013820
vt 0.217276 0.013820
vt 0.682239 0.249140
vt 0.876339 0.290647
vt 0.965687 0.352934
vt 0.793849 0.371136
vt 0.857545 0.326669
vt 0.662605 0.800455
vt 0.670327 0.912764
vt 0.662605 0.913151
vt 0.836089 0.263808
vt 0.293425 0.249325
vt 0.986180 0.752936
vt 0.962483 0.766674
vt 0.972034 0.701761
vt 0.340745 0.979690
vt 0.345841 0.893112
vt 0.364209 0.979982
vt 0.829713 0.662206
vt 0.841998 0.715816
vt 0.834267 0.715816
vt 0.822572 0.596928
vt 0.847221 0.662206
vt 0.146349 0.751711
vt 0.111320 0.638022
vt 0.146349 0.597152
vt 0.046122 0.800678
vt 0.038400 0.912988
vt 0.013820 0.799060
vt 0.841998 0.743456
vt 0.829713 0.797065
vt 0.834267 0.743456
vt 0.299317 0.161187
vt 0.358263 0.057991
vt 0.411872 0.055287
vt 0.229321 0.597152
vt 0.194632 0.711310
vt 0.173989 0.641628
vt 0.822572 0.862343
vt 0.847221 0.797065
vt 0.875704 0.862343
vt 0.507775 0.978892
vt 0.523875 0.950419
vt 0.523875 0.981205
vt 0.962483 0.828583
vt 0.978583 0.857056
vt 0.962483 0.859369
vt 0.778471 0.947730
vt 0.746075 0.900852
vt 0.776750 0.900778
vt 0.556854 0.919896
vt 0.519952 0.842845
vt 0.549892 0.842703
vt 0.747066 0.522768
vt 0.774823 0.569288
vt 0.758574 0.569288
vt 0.424336 0.948083
vt 0.456732 0.901206
vt 0.463925 0.948083
vt 0.903344 0.674121
vt 0.940246 0.597070
vt 0.956387 0.674121
vt 0.724138 0.522768
vt 0.695691 0.569288
vt 0.687693 0.492397
vt 0.424336 0.677048
vt 0.734985 0.522455
vt 0.244995 0.060548
vt 0.783574 0.492397
vt 0.456398 0.801487
vt 0.445903 0.749142
vt 0.469826 0.751990
vt 0.469826 0.829038
vt 0.464955 0.873491
vt 0.060155 0.766506
vt 0.036528 0.771420
vt 0.133216 0.897507
vt 0.090096 0.928878
vt 0.090096 0.906264
vt 0.506962 0.600970
vt 0.552601 0.633391
vt 0.392133 0.328613
vt 0.173989 0.897718
vt 0.217108 0.929089
vt 0.173989 0.943248
vt 0.631814 0.600970
vt 0.583208 0.596928
vt 0.287909 0.764715
vt 0.469826 0.645680
vt 0.313009 0.683160
vt 0.078118 0.055287
vt 0.698129 0.596928
vt 0.503811 0.352934
vt 0.125813 0.869867
vt 0.476170 0.229861
vt 0.026933 0.597152
vt 0.209706 0.779562
vt 0.326690 0.569511
vt 0.608141 0.815063
vt 0.784452 0.596928
vt 0.552533 0.254564
vt 0.738882 0.748853
vt 0.979688 0.932664
vt 0.373896 0.737074
vt 0.878715 0.889984
vt 0.662605 0.983472
vt 0.264092 0.893048
vt 0.654209 0.013820
vt 0.025296 0.950720
vt 0.903344 0.808553
vt 0.272715 0.013820
vt 0.903344 0.701761
vt 0.929819 0.889984
vt 0.598641 0.842703
vt 0.361003 0.865408
vt 0.694907 0.798837
vt 0.986180 0.798060
vt 0.340745 0.893048
vt 0.875704 0.596928
vt 0.090097 0.708197
vt 0.046122 0.913375
vt 0.229321 0.751922
vt 0.503811 0.947536
vt 0.982547 0.825700
vt 0.738882 0.947730
vt 0.503811 0.919896
vt 0.426057 0.901132
vt 0.910306 0.596928
vt 0.711939 0.569288
vt 0.429207 0.721501
vt 0.424336 0.797670
vt 0.133216 0.943037
vt 0.555568 0.596928
vt 0.217108 0.906475
s 0
usemtl Material
f 94/1/1 7/2/1 86/3/1
f 90/4/2 7/5/2 8/6/2
f 111/7/3 6/8/3 113/9/3
f 84/10/4 4/11/4 75/12/4
f 25/13/5 41/14/5 42/15/5
f 1/16/6 97/17/6 76/18/6
f 16/19/7 12/20/7 14/21/7
f 14/22/8 82/23/8 83/24/8
f 19/25/9 9/26/9 17/27/9
f 13/28/10 92/29/10 93/30/10
f 111/31/11 93/30/11 124/32/11
f 112/33/12 83/24/12 122/34/12
f 114/35/13 14/21/13 112/36/13
f 9/37/14 13/38/14 15/39/14
f 30/40/15 27/41/15 23/42/15
f 12/43/16 18/44/16 20/45/16
f 82/23/17 20/46/17 84/10/17
f 92/29/18 19/47/18 94/1/18
f 26/48/19 25/13/19 28/49/19
f 22/50/20 27/51/20 21/52/20
f 36/53/21 26/54/21 28/55/21
f 31/56/22 21/57/22 32/58/22
f 33/59/23 28/60/23 25/61/23
f 34/62/24 26/63/24 35/64/24
f 23/42/25 40/65/25 30/40/25
f 32/66/26 27/67/26 29/68/26
f 130/69/27 29/68/27 131/70/27
f 132/71/28 30/72/28 31/73/28
f 132/74/29 32/58/29 130/75/29
f 129/76/30 29/77/30 30/40/30
f 125/78/31 35/64/31 128/79/31
f 127/80/32 36/81/32 33/59/32
f 126/82/33 35/83/33 36/53/33
f 127/84/34 34/85/34 125/86/34
f 40/87/35 37/88/35 39/89/35
f 22/90/36 39/91/36 37/92/36
f 22/50/5 38/93/5 23/94/5
f 31/95/37 40/96/37 39/97/37
f 44/98/38 42/99/38 41/100/38
f 33/101/39 44/102/39 34/103/39
f 24/104/40 44/105/40 41/106/40
f 25/61/41 43/107/41 33/59/41
f 50/108/42 69/109/42 67/110/42
f 57/111/43 53/112/43 59/113/43
f 117/114/44 52/115/44 58/116/44
f 119/117/45 51/118/45 68/119/45
f 68/119/46 50/108/46 67/110/46
f 58/116/47 49/120/47 57/111/47
f 61/121/48 45/122/48 55/123/48
f 59/113/49 47/124/49 60/125/49
f 65/126/50 46/127/50 47/128/50
f 54/129/51 71/130/51 69/109/51
f 89/131/52 60/125/52 90/132/52
f 61/133/53 103/134/53 91/135/53
f 88/136/54 57/111/54 87/137/54
f 123/138/55 58/116/55 88/136/55
f 57/111/56 89/131/56 87/137/56
f 50/108/57 64/139/57 54/129/57
f 118/140/58 51/118/58 116/141/58
f 63/142/59 50/108/59 51/118/59
f 46/127/60 60/143/60 47/128/60
f 54/129/61 56/144/61 46/145/61
f 79/146/62 71/130/62 81/147/62
f 75/148/63 71/149/63 65/150/63
f 78/151/64 67/152/64 77/153/64
f 121/154/65 68/119/65 78/155/65
f 67/110/66 79/146/66 77/156/66
f 72/157/67 53/112/67 49/120/67
f 120/158/8 52/115/8 115/159/8
f 73/160/68 49/120/68 52/115/68
f 45/122/48 66/161/48 70/162/48
f 74/163/69 47/124/69 53/112/69
f 77/156/70 18/164/70 10/165/70
f 114/166/71 78/155/71 16/167/71
f 16/167/72 77/156/72 10/165/72
f 3/168/73 75/169/73 4/170/73
f 79/146/74 3/171/74 18/164/74
f 72/157/75 84/10/75 74/163/75
f 122/34/76 73/160/76 120/158/76
f 83/24/77 72/157/77 73/160/77
f 66/172/78 109/173/78 108/174/78
f 84/10/79 65/175/79 74/163/79
f 87/137/80 17/176/80 9/177/80
f 113/178/81 88/136/81 15/179/81
f 15/179/82 87/137/82 9/177/82
f 6/180/83 101/181/83 100/182/83
f 89/131/84 8/183/84 17/176/84
f 62/184/85 94/1/85 64/139/85
f 124/32/86 63/142/86 118/140/86
f 93/185/87 62/186/87 63/187/87
f 56/188/88 90/189/88 60/190/88
f 94/1/89 56/144/89 64/139/89
f 98/191/90 95/192/90 96/193/90
f 80/194/91 97/195/91 98/191/91
f 2/196/92 98/197/92 96/198/92
f 2/199/93 95/200/93 1/201/93
f 101/202/94 99/203/94 100/204/94
f 5/205/95 102/206/95 101/207/95
f 6/208/96 99/209/96 85/210/96
f 85/211/97 102/212/97 91/213/97
f 110/214/48 104/215/48 105/216/48
f 108/217/48 106/218/48 107/219/48
f 61/220/98 105/221/98 104/222/98
f 85/223/99 103/224/99 110/225/99
f 55/226/100 110/227/100 105/228/100
f 66/229/101 107/230/101 70/231/101
f 80/232/35 109/233/35 76/234/35
f 70/235/102 106/236/102 80/237/102
f 91/135/103 118/140/103 61/133/103
f 6/8/104 123/238/104 113/9/104
f 80/237/8 120/158/8 70/235/8
f 1/16/105 121/154/105 114/166/105
f 70/235/106 115/159/106 45/239/106
f 76/18/107 119/117/107 121/154/107
f 61/133/108 116/141/108 48/240/108
f 85/241/8 117/114/8 123/138/8
f 66/172/109 116/141/109 119/117/109
f 55/226/8 115/159/8 117/114/8
f 2/242/110 114/243/110 112/244/110
f 2/242/111 122/245/111 80/246/111
f 5/205/112 124/32/112 91/135/112
f 15/39/113 111/247/113 113/248/113
f 3/249/114 127/250/114 125/251/114
f 20/252/115 128/253/115 126/82/115
f 20/46/116 127/80/116 4/11/116
f 3/171/117 128/79/117 18/164/117
f 7/2/118 131/254/118 129/76/118
f 17/176/119 132/74/119 130/75/119
f 7/255/120 132/256/120 8/257/120
f 17/258/121 131/70/121 19/259/121
f 94/1/122 19/47/122 7/2/122
f 90/4/2 86/260/2 7/5/2
f 111/7/3 5/261/3 6/8/3
f 84/10/123 20/46/123 4/11/123
f 25/13/5 24/262/5 41/14/5
f 1/16/124 95/263/124 97/17/124
f 16/19/7 10/264/7 12/20/7
f 14/22/125 12/265/125 82/23/125
f 19/25/9 11/266/9 9/26/9
f 13/28/126 11/267/126 92/29/126
f 111/31/127 13/28/127 93/30/127
f 112/33/128 14/22/128 83/24/128
f 114/35/13 16/19/13 14/21/13
f 9/37/14 11/268/14 13/38/14
f 30/40/129 29/77/129 27/41/129
f 12/43/16 10/269/16 18/44/16
f 82/23/130 12/265/130 20/46/130
f 92/29/131 11/267/131 19/47/131
f 26/48/132 24/262/132 25/13/132
f 22/50/133 23/94/133 27/51/133
f 36/53/134 35/83/134 26/54/134
f 31/56/135 22/90/135 21/57/135
f 33/59/136 36/81/136 28/60/136
f 34/62/137 24/104/137 26/63/137
f 23/42/138 38/270/138 40/65/138
f 32/66/139 21/271/139 27/67/139
f 130/69/140 32/66/140 29/68/140
f 132/71/28 129/272/28 30/72/28
f 132/74/141 31/56/141 32/58/141
f 129/76/142 131/254/142 29/77/142
f 125/78/143 34/62/143 35/64/143
f 127/80/144 126/273/144 36/81/144
f 126/82/145 128/253/145 35/83/145
f 127/84/34 33/274/34 34/85/34
f 40/87/35 38/275/35 37/88/35
f 22/90/146 31/56/146 39/91/146
f 22/50/5 37/276/5 38/93/5
f 31/95/37 30/277/37 40/96/37
f 44/98/38 43/278/38 42/99/38
f 33/101/39 43/279/39 44/102/39
f 24/104/147 34/62/147 44/105/147
f 25/61/148 42/280/148 43/107/148
f 50/108/149 54/129/149 69/109/149
f 57/111/150 49/120/150 53/112/150
f 117/114/8 115/159/8 52/115/8
f 119/117/151 116/141/151 51/118/151
f 68/119/152 51/118/152 50/108/152
f 58/116/153 52/115/153 49/120/153
f 61/121/48 48/281/48 45/122/48
f 59/113/154 53/112/154 47/124/154
f 65/126/50 71/282/50 46/127/50
f 54/129/155 46/145/155 71/130/155
f 89/131/156 59/113/156 60/125/156
f 61/133/78 104/283/78 103/134/78
f 88/136/157 58/116/157 57/111/157
f 123/138/158 117/114/158 58/116/158
f 57/111/159 59/113/159 89/131/159
f 50/108/160 62/184/160 64/139/160
f 118/140/161 63/142/161 51/118/161
f 63/142/162 62/184/162 50/108/162
f 46/127/60 56/284/60 60/143/60
f 54/129/163 64/139/163 56/144/163
f 79/146/164 69/109/164 71/130/164
f 75/148/63 81/285/63 71/149/63
f 78/151/165 68/286/165 67/152/165
f 121/154/166 119/117/166 68/119/166
f 67/110/167 69/109/167 79/146/167
f 72/157/168 74/163/168 53/112/168
f 120/158/169 73/160/169 52/115/169
f 73/160/170 72/157/170 49/120/170
f 45/122/48 48/281/48 66/161/48
f 74/163/171 65/175/171 47/124/171
f 77/156/172 79/146/172 18/164/172
f 114/166/173 121/154/173 78/155/173
f 16/167/10 78/155/10 77/156/10
f 3/168/73 81/287/73 75/169/73
f 79/146/174 81/147/174 3/171/174
f 72/157/175 82/23/175 84/10/175
f 122/34/176 83/24/176 73/160/176
f 83/24/177 82/23/177 72/157/177
f 66/172/178 76/18/178 109/173/178
f 84/10/179 75/12/179 65/175/179
f 87/137/180 89/131/180 17/176/180
f 113/178/181 123/138/181 88/136/181
f 15/179/8 88/136/8 87/137/8
f 6/180/83 5/288/83 101/181/83
f 89/131/182 90/132/182 8/183/182
f 62/184/183 92/29/183 94/1/183
f 124/32/184 93/30/184 63/142/184
f 93/185/185 92/289/185 62/186/185
f 56/188/88 86/290/88 90/189/88
f 94/1/186 86/3/186 56/144/186
f 98/191/90 97/195/90 95/192/90
f 80/194/91 76/291/91 97/195/91
f 2/196/187 80/292/187 98/197/187
f 2/199/93 96/293/93 95/200/93
f 101/202/94 102/212/94 99/203/94
f 5/205/188 91/135/188 102/206/188
f 6/208/189 100/294/189 99/209/189
f 85/211/97 99/203/97 102/212/97
f 110/214/48 103/295/48 104/215/48
f 108/217/48 109/296/48 106/218/48
f 61/220/190 55/297/190 105/221/190
f 85/223/38 91/298/38 103/224/38
f 55/226/191 85/241/191 110/227/191
f 66/229/192 108/299/192 107/230/192
f 80/232/193 106/300/193 109/233/193
f 70/235/100 107/301/100 106/236/100
f 91/135/194 124/32/194 118/140/194
f 6/8/195 85/302/195 123/238/195
f 80/237/8 122/34/8 120/158/8
f 1/16/196 76/18/196 121/154/196
f 70/235/8 120/158/8 115/159/8
f 76/18/197 66/172/197 119/117/197
f 61/133/198 118/140/198 116/141/198
f 85/241/8 55/226/8 117/114/8
f 66/172/199 48/240/199 116/141/199
f 55/226/200 45/239/200 115/159/200
f 2/242/110 1/303/110 114/243/110
f 2/242/201 112/244/201 122/245/201
f 5/205/202 111/31/202 124/32/202
f 15/39/113 13/38/113 111/247/113
f 3/249/114 4/304/114 127/250/114
f 20/252/203 18/305/203 128/253/203
f 20/46/204 126/273/204 127/80/204
f 3/171/205 125/78/205 128/79/205
f 7/2/206 19/47/206 131/254/206
f 17/176/207 8/183/207 132/74/207
f 7/255/120 129/306/120 132/256/120
f 17/258/208 130/69/208 131/70/208
