# Blender 4.2.1 LTS
# www.blender.org
mtllib Bullet.mtl
o æ£±è§’çƒ
v 0.000000 -1.440138 -4.174067
v 0.723607 -0.447220 0.525725
v -0.276388 -0.447220 0.850649
v -0.894426 -0.447216 0.000000
v -0.276388 -0.447220 -0.850649
v 0.723607 -0.447220 -0.525725
v 0.276388 0.447220 0.850649
v -0.723607 0.447220 0.525725
v -0.723607 0.447220 -0.525725
v 0.276388 0.447220 -0.850649
v 0.894426 0.447216 0.000000
v 0.000000 1.440138 -4.174067
v -0.162456 -0.850654 0.499995
v 0.425323 -0.850654 0.309011
v 0.262869 -0.525738 0.809012
v 0.850648 -0.525736 0.000000
v 0.425323 -0.850654 -0.309011
v -0.525730 -0.850652 0.000000
v -0.688189 -0.525736 0.499997
v -0.162456 -0.755227 -0.499995
v -0.688189 -0.525736 -0.499997
v 0.262869 -0.525738 -0.809012
v 0.951058 0.000000 0.309013
v 1.215806 0.000000 -3.031828
v 0.000000 0.000000 1.000000
v 0.587786 0.000000 0.809017
v -0.951058 0.000000 0.309013
v -0.587786 0.000000 0.809017
v -0.587786 0.000000 -0.809017
v -1.215806 0.000000 -3.031828
v 0.587786 0.000000 -0.809017
v 0.000000 0.000000 -8.936467
v 0.688189 0.525736 0.499997
v -0.262869 0.525738 0.809012
v -0.850648 0.525736 0.000000
v -0.262869 0.525738 -0.809012
v 0.688189 0.525736 -0.499997
v 0.162456 0.850654 0.499995
v 0.525730 0.850652 0.000000
v -0.425323 0.850654 0.309011
v -0.425323 0.850654 -0.309011
v 0.162456 0.760024 -0.499995
vn 0.0411 -0.9911 0.1264
vn 0.7002 -0.6617 0.2680
vn -0.1623 -0.9797 0.1179
vn -0.4758 0.8606 -0.1815
vn 0.2115 0.9625 -0.1701
vn 0.9050 -0.3304 0.2680
vn 0.0247 -0.3304 0.9435
vn -0.8897 -0.3304 0.3151
vn -0.5746 -0.3304 -0.7488
vn 0.5346 -0.3304 -0.7779
vn 0.8026 -0.1256 0.5831
vn -0.3066 -0.1256 0.9435
vn -0.9810 -0.1779 0.0777
vn -0.8218 -0.5667 -0.0594
vn -0.8728 -0.4213 -0.2466
vn 0.4089 0.6617 0.6284
vn -0.4713 0.6617 0.5831
vn -0.7002 0.6617 -0.2680
vn 0.0594 0.7544 -0.6537
vn 0.7240 0.6617 -0.1947
vn 0.4652 -0.8665 -0.1810
vn 0.3696 0.8294 -0.4189
vn 0.3362 0.7544 -0.5638
vn -0.2037 -0.9642 -0.1695
vn -0.0528 0.8294 -0.5561
vn -0.4713 0.6617 -0.5831
vn -0.8110 0.5851 -0.0000
vn -0.6071 0.7947 -0.0000
vn -0.7002 0.6617 0.2680
vn -0.0411 0.9911 0.1264
vn -0.1876 0.7947 0.5773
vn 0.0385 0.6617 0.7488
vn 0.1623 0.9797 0.1179
vn 0.4911 0.7947 0.3568
vn 0.7240 0.6617 0.1947
vn 0.5051 0.8599 -0.0733
vn -0.9101 0.3249 -0.2571
vn 0.5746 0.3304 -0.7488
vn 0.1393 0.9885 -0.0594
vn -0.8491 0.5247 -0.0614
vn -0.5346 0.3304 -0.7779
vn -0.0654 0.9845 -0.1628
vn -0.9700 0.2305 0.0769
vn -0.9050 0.3304 0.2680
vn -0.5346 0.3304 0.7779
vn -0.3035 0.1876 0.9342
vn -0.0247 0.3304 0.9435
vn 0.5746 0.3304 0.7488
vn 0.7947 0.1876 0.5773
vn 0.8897 0.3304 0.3151
vn 0.8218 0.5667 -0.0594
vn 0.8491 -0.5247 -0.0614
vn -0.1393 -0.9885 -0.0594
vn 0.8728 0.4213 -0.2466
vn 0.9101 -0.3249 -0.2571
vn -0.5051 -0.8599 -0.0733
vn -0.8026 0.1256 0.5831
vn -0.7947 -0.1876 0.5773
vn -0.5746 -0.3304 0.7488
vn 0.3066 0.1256 0.9435
vn 0.3035 -0.1876 0.9342
vn 0.5346 -0.3304 0.7779
vn 0.9810 0.1779 0.0777
vn 0.9700 -0.2305 0.0769
vn 0.0654 -0.9845 -0.1628
vn 0.4713 -0.6617 -0.5831
vn 0.0453 -0.8309 -0.5546
vn -0.0606 -0.7596 -0.6475
vn -0.3316 -0.7596 -0.5595
vn -0.3627 -0.8309 -0.4221
vn -0.7240 -0.6617 -0.1947
vn -0.7240 -0.6617 0.1947
vn -0.4911 -0.7947 0.3568
vn -0.4089 -0.6617 0.6284
vn 0.7002 -0.6617 -0.2680
vn 0.6071 -0.7947 -0.0000
vn 0.8110 -0.5851 -0.0000
vn -0.0385 -0.6617 0.7488
vn 0.1876 -0.7947 0.5773
vn 0.4713 -0.6617 0.5831
vt 0.766854 0.439804
vt 0.638106 0.118681
vt 0.676824 0.106820
vt 0.271139 0.037558
vt 0.311080 0.060815
vt 0.264990 0.081362
vt 0.716686 0.139258
vt 0.914898 0.365905
vt 0.914898 0.011485
vt 0.941102 0.053088
vt 0.833546 0.867809
vt 0.789824 0.615023
vt 0.833546 0.586349
vt 0.227308 0.050875
vt 0.688838 0.062203
vt 0.647421 0.068798
vt 0.678427 0.027852
vt 0.756655 0.117389
vt 0.726002 0.089375
vt 0.766854 0.073007
vt 0.418665 0.540073
vt 0.391044 0.577132
vt 0.375366 0.528590
vt 0.260550 0.125831
vt 0.285590 0.153466
vt 0.233816 0.147323
vt 0.250111 0.011485
vt 0.726992 0.040569
vt 0.142128 0.771352
vt 0.111235 0.794443
vt 0.157745 0.515844
vt 0.482163 0.011485
vt 0.382268 0.836198
vt 0.349937 0.803169
vt 0.394118 0.642888
vt 0.716123 0.840375
vt 0.678959 0.813203
vt 0.728136 0.795757
vt 0.067399 0.807766
vt 0.036693 0.827705
vt 0.027453 0.784517
vt 0.077969 0.719492
vt 0.073523 0.763960
vt 0.033666 0.732631
vt 0.571023 0.091424
vt 0.531125 0.103146
vt 0.548387 0.058824
vt 0.615137 0.018123
vt 0.595607 0.052285
vt 0.569615 0.011485
vt 0.948935 0.940764
vt 0.923043 0.899139
vt 0.948935 0.586349
vt 0.900074 0.839393
vt 0.856516 0.868169
vt 0.856516 0.586349
vt 0.505132 0.062345
vt 0.052958 0.691864
vt 0.011485 0.400830
vt 0.766854 0.783897
vt 0.638106 0.462773
vt 0.757539 0.833780
vt 0.688274 0.763320
vt 0.648305 0.785189
vt 0.964072 0.011485
vt 0.988515 0.190607
vt 0.964072 0.217924
vt 0.544915 0.860866
vt 0.505132 0.673792
vt 0.544915 0.645422
vt 0.615137 0.099450
vt 0.891929 0.011485
vt 0.891929 0.563379
vt 0.852361 0.545113
vt 0.157745 0.011485
vt 0.104738 0.697998
vt 0.417087 0.867650
vt 0.417087 0.642888
vt 0.428892 0.674528
vt 0.088472 0.833839
vt 0.719279 0.011485
vt 0.726534 0.874726
vt 0.677968 0.862009
vt 0.638106 0.829571
vt 0.548295 0.622452
vt 0.180715 0.833829
vt 0.789824 0.011485
vt 0.829391 0.029752
vt 0.789824 0.563380
vt 0.461292 0.707487
vt 0.607653 0.832506
vt 0.567885 0.860860
vt 0.567885 0.645422
vt 0.368937 0.609690
vt 0.349937 0.409127
vt 0.685681 0.891093
vt 0.301885 0.017629
vt 0.180715 0.329462
vt 0.196443 0.073962
vt 0.394118 0.867927
vt 0.304856 0.112700
vt 0.482163 0.574399
vt 0.438437 0.574151
vt 0.459435 0.531612
vt 0.413772 0.619919
vt 0.326967 0.444504
s 0
usemtl Material.001
f 1/1/1 14/2/1 13/3/1
f 2/4/2 14/5/2 16/6/2
f 1/1/3 13/3/3 18/7/3
f 1/8/4 18/9/4 20/10/4
f 1/11/5 20/12/5 17/13/5
f 2/4/6 16/6/6 23/14/6
f 3/15/7 15/16/7 25/17/7
f 4/18/8 19/19/8 27/20/8
f 5/21/9 21/22/9 29/23/9
f 6/24/10 22/25/10 31/26/10
f 2/4/11 23/14/11 26/27/11
f 3/15/12 25/17/12 28/28/12
f 4/29/13 27/30/13 30/31/13
f 5/21/14 29/23/14 32/32/14
f 6/33/15 31/34/15 24/35/15
f 7/36/16 33/37/16 38/38/16
f 8/39/17 34/40/17 40/41/17
f 9/42/18 35/43/18 41/44/18
f 10/45/19 36/46/19 42/47/19
f 11/48/20 37/49/20 39/50/20
f 39/51/21 42/52/21 12/53/21
f 39/50/22 37/49/22 42/47/22
f 37/49/23 10/45/23 42/47/23
f 42/54/24 41/55/24 12/56/24
f 42/47/25 36/46/25 41/57/25
f 36/58/26 9/42/26 41/44/26
f 41/44/27 40/41/27 12/59/27
f 41/44/28 35/43/28 40/41/28
f 35/43/29 8/39/29 40/41/29
f 40/60/30 38/38/30 12/61/30
f 40/60/31 34/62/31 38/38/31
f 34/62/32 7/36/32 38/38/32
f 38/38/33 39/63/33 12/61/33
f 38/38/34 33/37/34 39/63/34
f 33/37/35 11/64/35 39/63/35
f 24/65/36 37/66/36 11/67/36
f 24/68/37 31/69/37 37/70/37
f 31/71/38 10/45/38 37/49/38
f 32/72/39 36/73/39 10/74/39
f 32/75/40 29/76/40 36/58/40
f 29/76/41 9/42/41 36/58/41
f 30/77/42 35/78/42 9/79/42
f 30/31/43 27/30/43 35/43/43
f 27/30/44 8/39/44 35/43/44
f 28/80/45 34/40/45 8/39/45
f 28/28/46 25/17/46 34/81/46
f 25/82/47 7/36/47 34/62/47
f 26/83/48 33/37/48 7/36/48
f 26/83/49 23/84/49 33/37/49
f 23/84/50 11/64/50 33/37/50
f 31/71/51 32/85/51 10/45/51
f 31/26/52 22/25/52 32/86/52
f 22/87/53 5/88/53 32/89/53
f 29/90/54 30/77/54 9/79/54
f 29/91/55 21/92/55 30/93/55
f 21/22/56 4/94/56 30/95/56
f 27/30/57 28/80/57 8/39/57
f 27/20/58 19/19/58 28/28/58
f 19/19/59 3/15/59 28/28/59
f 25/82/60 26/83/60 7/36/60
f 25/82/61 15/96/61 26/83/61
f 15/97/62 2/4/62 26/27/62
f 23/14/63 24/98/63 11/99/63
f 23/14/64 16/6/64 24/98/64
f 16/100/65 6/33/65 24/35/65
f 17/101/66 22/25/66 6/24/66
f 17/102/67 20/103/67 22/104/67
f 20/103/68 5/21/68 22/104/68
f 20/103/69 21/22/69 5/21/69
f 20/103/70 18/105/70 21/22/70
f 18/105/71 4/94/71 21/22/71
f 18/7/72 19/19/72 4/18/72
f 18/7/73 13/3/73 19/19/73
f 13/3/74 3/15/74 19/19/74
f 16/6/75 17/101/75 6/24/75
f 16/6/76 14/5/76 17/101/76
f 14/5/77 1/106/77 17/101/77
f 13/3/78 15/16/78 3/15/78
f 13/3/79 14/2/79 15/16/79
f 14/5/80 2/4/80 15/97/80
